<svg width="60" height="56" viewBox="0 0 60 56" fill="none" xmlns="http://www.w3.org/2000/svg">
<path d="M10.0033 42.9973C9.7381 42.9973 9.48376 43.1027 9.29623 43.2902C9.10871 43.4777 9.00336 43.7321 9.00336 43.9973V49.9969C9.00336 50.2621 9.10871 50.5164 9.29623 50.704C9.48376 50.8915 9.7381 50.9968 10.0033 50.9968C10.2685 50.9968 10.5228 50.8915 10.7104 50.704C10.8979 50.5164 11.0032 50.2621 11.0032 49.9969V43.9973C11.0032 43.7321 10.8979 43.4777 10.7104 43.2902C10.5228 43.1027 10.2685 42.9973 10.0033 42.9973Z" fill="#F37321"/>
<path d="M14.0031 42.9973C13.7379 42.9973 13.4835 43.1027 13.296 43.2902C13.1085 43.4777 13.0031 43.7321 13.0031 43.9973V49.9969C13.0031 50.2621 13.1085 50.5164 13.296 50.704C13.4835 50.8915 13.7379 50.9968 14.0031 50.9968C14.2683 50.9968 14.5226 50.8915 14.7101 50.704C14.8977 50.5164 15.003 50.2621 15.003 49.9969V43.9973C15.003 43.7321 14.8977 43.4777 14.7101 43.2902C14.5226 43.1027 14.2683 42.9973 14.0031 42.9973Z" fill="#F37321"/>
<path d="M18.0028 32.998C17.7376 32.998 17.4833 33.1034 17.2958 33.2909C17.1082 33.4784 17.0029 33.7328 17.0029 33.998V39.9976C17.0029 40.2628 17.1082 40.5171 17.2958 40.7047C17.4833 40.8922 17.7376 40.9975 18.0028 40.9975C18.268 40.9975 18.5224 40.8922 18.7099 40.7047C18.8974 40.5171 19.0028 40.2628 19.0028 39.9976V33.998C19.0028 33.7328 18.8974 33.4784 18.7099 33.2909C18.5224 33.1034 18.268 32.998 18.0028 32.998Z" fill="#F37321"/>
<path d="M18.0028 42.9973C17.7376 42.9973 17.4833 43.1027 17.2958 43.2902C17.1082 43.4777 17.0029 43.7321 17.0029 43.9973V49.9969C17.0029 50.2621 17.1082 50.5164 17.2958 50.704C17.4833 50.8915 17.7376 50.9968 18.0028 50.9968C18.268 50.9968 18.5224 50.8915 18.7099 50.704C18.8974 50.5164 19.0028 50.2621 19.0028 49.9969V43.9973C19.0028 43.7321 18.8974 43.4777 18.7099 43.2902C18.5224 43.1027 18.268 42.9973 18.0028 42.9973Z" fill="#F37321"/>
<path d="M22.0026 32.998C21.7374 32.998 21.483 33.1034 21.2955 33.2909C21.108 33.4784 21.0026 33.7328 21.0026 33.998V39.9976C21.0026 40.2628 21.108 40.5171 21.2955 40.7047C21.483 40.8922 21.7374 40.9975 22.0026 40.9975C22.2678 40.9975 22.5221 40.8922 22.7097 40.7047C22.8972 40.5171 23.0025 40.2628 23.0025 39.9976V33.998C23.0025 33.7328 22.8972 33.4784 22.7097 33.2909C22.5221 33.1034 22.2678 32.998 22.0026 32.998Z" fill="#F37321"/>
<path d="M22.0026 42.9973C21.7374 42.9973 21.483 43.1027 21.2955 43.2902C21.108 43.4777 21.0026 43.7321 21.0026 43.9973V49.9969C21.0026 50.2621 21.108 50.5164 21.2955 50.704C21.483 50.8915 21.7374 50.9968 22.0026 50.9968C22.2678 50.9968 22.5221 50.8915 22.7097 50.704C22.8972 50.5164 23.0025 50.2621 23.0025 49.9969V43.9973C23.0025 43.7321 22.8972 43.4777 22.7097 43.2902C22.5221 43.1027 22.2678 42.9973 22.0026 42.9973Z" fill="#F37321"/>
<path d="M38.0016 32.998C37.7364 32.998 37.4821 33.1034 37.2946 33.2909C37.107 33.4784 37.0017 33.7328 37.0017 33.998V39.9976C37.0017 40.2628 37.107 40.5171 37.2946 40.7047C37.4821 40.8922 37.7364 40.9975 38.0016 40.9975C38.2668 40.9975 38.5212 40.8922 38.7087 40.7047C38.8962 40.5171 39.0016 40.2628 39.0016 39.9976V33.998C39.0016 33.7328 38.8962 33.4784 38.7087 33.2909C38.5212 33.1034 38.2668 32.998 38.0016 32.998Z" fill="#F37321"/>
<path d="M38.0016 42.9973C37.7364 42.9973 37.4821 43.1027 37.2946 43.2902C37.107 43.4777 37.0017 43.7321 37.0017 43.9973V49.9969C37.0017 50.2621 37.107 50.5164 37.2946 50.704C37.4821 50.8915 37.7364 50.9968 38.0016 50.9968C38.2668 50.9968 38.5212 50.8915 38.7087 50.704C38.8962 50.5164 39.0016 50.2621 39.0016 49.9969V43.9973C39.0016 43.7321 38.8962 43.4777 38.7087 43.2902C38.5212 43.1027 38.2668 42.9973 38.0016 42.9973Z" fill="#F37321"/>
<path d="M42.0014 32.998C41.7362 32.998 41.4818 33.1034 41.2943 33.2909C41.1068 33.4784 41.0015 33.7328 41.0015 33.998V39.9976C41.0015 40.2628 41.1068 40.5171 41.2943 40.7047C41.4818 40.8922 41.7362 40.9975 42.0014 40.9975C42.2666 40.9975 42.5209 40.8922 42.7085 40.7047C42.896 40.5171 43.0013 40.2628 43.0013 39.9976V33.998C43.0013 33.7328 42.896 33.4784 42.7085 33.2909C42.5209 33.1034 42.2666 32.998 42.0014 32.998Z" fill="#F37321"/>
<path d="M42.0014 42.9973C41.7362 42.9973 41.4818 43.1027 41.2943 43.2902C41.1068 43.4777 41.0015 43.7321 41.0015 43.9973V49.9969C41.0015 50.2621 41.1068 50.5164 41.2943 50.704C41.4818 50.8915 41.7362 50.9968 42.0014 50.9968C42.2666 50.9968 42.5209 50.8915 42.7085 50.704C42.896 50.5164 43.0013 50.2621 43.0013 49.9969V43.9973C43.0013 43.7321 42.896 43.4777 42.7085 43.2902C42.5209 43.1027 42.2666 42.9973 42.0014 42.9973Z" fill="#F37321"/>
<path d="M46.0012 42.9973C45.736 42.9973 45.4816 43.1027 45.2941 43.2902C45.1066 43.4777 45.0012 43.7321 45.0012 43.9973V49.9969C45.0012 50.2621 45.1066 50.5164 45.2941 50.704C45.4816 50.8915 45.736 50.9968 46.0012 50.9968C46.2664 50.9968 46.5207 50.8915 46.7082 50.704C46.8957 50.5164 47.0011 50.2621 47.0011 49.9969V43.9973C47.0011 43.7321 46.8957 43.4777 46.7082 43.2902C46.5207 43.1027 46.2664 42.9973 46.0012 42.9973Z" fill="#F37321"/>
<path d="M50.0009 42.9973C49.7357 42.9973 49.4814 43.1027 49.2938 43.2902C49.1063 43.4777 49.001 43.7321 49.001 43.9973V49.9969C49.001 50.2621 49.1063 50.5164 49.2938 50.704C49.4814 50.8915 49.7357 50.9968 50.0009 50.9968C50.2661 50.9968 50.5205 50.8915 50.708 50.704C50.8955 50.5164 51.0009 50.2621 51.0009 49.9969V43.9973C51.0009 43.7321 50.8955 43.4777 50.708 43.2902C50.5205 43.1027 50.2661 42.9973 50.0009 42.9973Z" fill="#F37321"/>
<path d="M30.0021 32.998C29.7369 32.998 29.4826 33.1034 29.295 33.2909C29.1075 33.4784 29.0022 33.7328 29.0022 33.998V39.9976C29.0022 40.2628 29.1075 40.5171 29.295 40.7047C29.4826 40.8922 29.7369 40.9975 30.0021 40.9975C30.2673 40.9975 30.5217 40.8922 30.7092 40.7047C30.8967 40.5171 31.0021 40.2628 31.0021 39.9976V33.998C31.0021 33.7328 30.8967 33.4784 30.7092 33.2909C30.5217 33.1034 30.2673 32.998 30.0021 32.998Z" fill="#F37321"/>
<path d="M30.0021 42.9973C29.7369 42.9973 29.4826 43.1027 29.295 43.2902C29.1075 43.4777 29.0022 43.7321 29.0022 43.9973V49.9969C29.0022 50.2621 29.1075 50.5164 29.295 50.704C29.4826 50.8915 29.7369 50.9968 30.0021 50.9968C30.2673 50.9968 30.5217 50.8915 30.7092 50.704C30.8967 50.5164 31.0021 50.2621 31.0021 49.9969V43.9973C31.0021 43.7321 30.8967 43.4777 30.7092 43.2902C30.5217 43.1027 30.2673 42.9973 30.0021 42.9973Z" fill="#F37321"/>
<path d="M26.0023 32.998C25.7372 32.998 25.4828 33.1034 25.2953 33.2909C25.1078 33.4784 25.0024 33.7328 25.0024 33.998V39.9976C25.0024 40.2628 25.1078 40.5171 25.2953 40.7047C25.4828 40.8922 25.7372 40.9975 26.0023 40.9975C26.2676 40.9975 26.5219 40.8922 26.7094 40.7047C26.8969 40.5171 27.0023 40.2628 27.0023 39.9976V33.998C27.0023 33.7328 26.8969 33.4784 26.7094 33.2909C26.5219 33.1034 26.2676 32.998 26.0023 32.998Z" fill="#F37321"/>
<path d="M26.0023 42.9973C25.7372 42.9973 25.4828 43.1027 25.2953 43.2902C25.1078 43.4777 25.0024 43.7321 25.0024 43.9973V49.9969C25.0024 50.2621 25.1078 50.5164 25.2953 50.704C25.4828 50.8915 25.7372 50.9968 26.0023 50.9968C26.2676 50.9968 26.5219 50.8915 26.7094 50.704C26.8969 50.5164 27.0023 50.2621 27.0023 49.9969V43.9973C27.0023 43.7321 26.8969 43.4777 26.7094 43.2902C26.5219 43.1027 26.2676 42.9973 26.0023 42.9973Z" fill="#F37321"/>
<path d="M34.0019 32.998C33.7367 32.998 33.4823 33.1034 33.2948 33.2909C33.1073 33.4784 33.0019 33.7328 33.0019 33.998V39.9976C33.0019 40.2628 33.1073 40.5171 33.2948 40.7047C33.4823 40.8922 33.7367 40.9975 34.0019 40.9975C34.2671 40.9975 34.5214 40.8922 34.7089 40.7047C34.8965 40.5171 35.0018 40.2628 35.0018 39.9976V33.998C35.0018 33.7328 34.8965 33.4784 34.7089 33.2909C34.5214 33.1034 34.2671 32.998 34.0019 32.998Z" fill="#F37321"/>
<path d="M34.0019 42.9973C33.7367 42.9973 33.4823 43.1027 33.2948 43.2902C33.1073 43.4777 33.0019 43.7321 33.0019 43.9973V49.9969C33.0019 50.2621 33.1073 50.5164 33.2948 50.704C33.4823 50.8915 33.7367 50.9968 34.0019 50.9968C34.2671 50.9968 34.5214 50.8915 34.7089 50.704C34.8965 50.5164 35.0018 50.2621 35.0018 49.9969V43.9973C35.0018 43.7321 34.8965 43.4777 34.7089 43.2902C34.5214 43.1027 34.2671 42.9973 34.0019 42.9973Z" fill="#F37321"/>
<path d="M57.6479 41.8784L59.1342 29.9882C59.3738 29.9558 59.5935 29.8376 59.7527 29.6556C59.9119 29.4736 59.9998 29.2401 60 28.9983V22.9986C60 22.7334 59.8946 22.4791 59.7071 22.2916C59.5196 22.104 59.2653 21.9987 59.0001 21.9987H56.4676C57.2046 21.1771 57.7005 20.1679 57.9007 19.0825C58.1008 17.9971 57.9975 16.8775 57.6021 15.847C57.2066 14.8165 56.5344 13.9152 55.6595 13.2423C54.7846 12.5695 53.7409 12.1512 52.6434 12.0335C53.078 10.8293 53.1159 9.5176 52.7514 8.2903C52.387 7.06303 51.6394 5.98455 50.6181 5.21264C49.5967 4.44073 48.3551 4.01589 47.075 4.00027C45.7948 3.98465 44.5433 4.37906 43.5034 5.12582C42.0161 3.17219 39.625 1.99988 37.0014 1.99988C33.8669 1.99988 31.088 3.67828 29.7778 6.269C28.8801 5.9905 27.9295 5.92687 27.0026 6.08325C26.0758 6.23962 25.1987 6.61163 24.442 7.16926C23.6853 7.72689 23.0703 8.4545 22.6465 9.2935C22.2227 10.1325 22.0021 11.0593 22.0023 11.9993C22.0023 12.0668 22.0045 12.134 22.0068 12.2014C21.313 12.3419 20.636 12.5556 19.9873 12.8389C19.5226 11.9513 18.9133 11.1473 18.1844 10.4599C16.9479 9.2847 16.1826 7.69882 16.0319 5.99964H17.0026C17.2678 5.99964 17.5221 5.89429 17.7096 5.70677C17.8972 5.51924 18.0025 5.2649 18.0025 4.9997V2.99982C18.0016 2.20449 17.6853 1.442 17.1229 0.87961C16.5605 0.31723 15.798 0.00089 15.0027 0H9.00305C8.20772 0.00089 7.44523 0.31723 6.88285 0.87961C6.32046 1.442 6.00413 2.20449 6.00323 2.99982V4.9997C6.00323 5.2649 6.10858 5.51924 6.29611 5.70677C6.48363 5.89429 6.73797 5.99964 7.00317 5.99964H7.97386C7.82322 7.69887 7.05788 9.2848 5.82137 10.46C4.92748 11.2978 4.21589 12.3108 3.73104 13.4359C3.2462 14.5609 2.9985 15.7739 3.00341 16.999C3.0029 17.7374 3.2759 18.4499 3.76974 18.9989C3.2759 19.5479 3.0029 20.2603 3.00341 20.9987V21.9987H1.00353C0.738331 21.9987 0.483992 22.104 0.296467 22.2916C0.108942 22.4791 0.00359171 22.7334 0.00359171 22.9986V28.9983C0.00382492 29.2401 0.0916693 29.4736 0.250858 29.6556C0.410048 29.8376 0.629797 29.9558 0.869415 29.9882L2.35995 41.9125L0.37032 45.5598C0.104386 46.0435 -0.0226292 46.5914 0.00330717 47.1429C0.0292435 47.6943 0.207122 48.2279 0.517289 48.6845C0.827455 49.1412 1.25783 49.5033 1.76087 49.7307C2.26391 49.9581 2.82002 50.042 3.36777 49.9731L3.69937 52.6267C3.93948 54.5481 5.64675 55.9966 7.67088 55.9966H52.3327C54.3567 55.9966 56.0641 54.5481 56.3042 52.6272L56.6411 49.9323C57.2607 50.0097 57.889 49.8894 58.4362 49.5884C58.7821 49.3998 59.0874 49.1449 59.3347 48.8382C59.582 48.5316 59.7665 48.1793 59.8777 47.8013C59.9888 47.4234 60.0245 47.0273 59.9825 46.6356C59.9406 46.2438 59.8219 45.8642 59.6333 45.5184L57.6479 41.8784ZM58.0001 23.9986V27.9983H50.077L47.8952 23.9986H58.0001ZM57.1173 29.9982L56.0081 38.8727L51.1678 29.9982H57.1173ZM28.0019 7.99952C28.6466 7.99774 29.2819 8.1536 29.8526 8.4536C29.9808 8.5208 30.1221 8.5594 30.2667 8.5666C30.4113 8.5738 30.5557 8.5496 30.69 8.4955C30.8243 8.4415 30.9453 8.3589 31.0446 8.2535C31.1438 8.1481 31.219 8.0225 31.265 7.88515C32.0423 5.56117 34.3479 3.99976 37.0014 3.99976C39.2887 3.99976 41.4105 5.22194 42.4071 7.11332C42.4821 7.25567 42.5903 7.37782 42.7226 7.4694C42.8549 7.56097 43.0073 7.61927 43.167 7.63935C43.3266 7.65942 43.4887 7.64067 43.6396 7.58469C43.7904 7.52872 43.9256 7.43716 44.0335 7.31781C44.5754 6.7182 45.2863 6.29684 46.0725 6.10926C46.8587 5.92167 47.6832 5.97667 48.4375 6.26699C49.1918 6.55732 49.8405 7.06935 50.298 7.73563C50.7555 8.4019 51.0005 9.1912 51.0005 9.9994C51.0038 10.9076 50.6943 11.7893 50.1242 12.4963C49.9948 12.658 49.9188 12.8559 49.9066 13.0626C49.8945 13.2694 49.9469 13.4749 50.0566 13.6506C50.1663 13.8263 50.3278 13.9636 50.5189 14.0435C50.71 14.1235 50.9212 14.1421 51.1233 14.0969C51.6722 13.9733 52.2409 13.9669 52.7925 14.078C53.344 14.1892 53.8659 14.4155 54.324 14.7421C54.7821 15.0687 55.1662 15.4883 55.4511 15.9735C55.736 16.4586 55.9154 16.9984 55.9775 17.5576C56.0395 18.1168 55.9829 18.6828 55.8114 19.2186C55.6398 19.7545 55.3571 20.2481 54.9818 20.6672C54.6064 21.0863 54.1469 21.4216 53.6332 21.651C53.1195 21.8804 52.5631 21.9989 52.0005 21.9987H49.5415C49.0525 20.4446 48.1913 19.0336 47.0328 17.8882C45.8742 16.7428 44.4534 15.8977 42.8938 15.4266C41.3343 14.9554 39.6833 14.8723 38.0843 15.1845C36.4854 15.4968 34.9869 16.1949 33.7192 17.2182C33.495 17.3996 33.2794 17.5902 33.0725 17.7898C32.2702 16.0601 30.99 14.596 29.3829 13.57C27.7758 12.544 25.9088 11.999 24.0022 11.9993C24.0033 10.9388 24.4251 9.9222 25.175 9.1723C25.9248 8.4225 26.9415 8.0007 28.0019 7.99952ZM47.4174 21.9987H32.585C33.0971 20.7391 33.9198 19.6296 34.9765 18.7739C36.3994 17.6255 38.1727 16.9992 40.0012 16.9992C41.8297 16.9992 43.603 17.6255 45.0259 18.7739C46.0826 19.6296 46.9053 20.7391 47.4174 21.9987ZM20.7107 14.7066C22.0601 14.0983 23.5516 13.8759 25.0197 14.0644C26.4878 14.2528 27.8749 14.8446 29.0269 15.7741C30.239 16.7553 31.1398 18.0677 31.6197 19.5516C31.1244 20.311 30.7346 21.1343 30.4609 21.9987H21.0023V20.9987C21.0028 20.2603 20.7298 19.5479 20.236 18.9989C20.7298 18.4499 21.0028 17.7374 21.0023 16.999C21.0032 16.2256 20.9052 15.4552 20.7107 14.7066ZM44.6679 23.9986L42.7659 25.036C42.5331 25.163 42.3603 25.3773 42.2854 25.6317C42.2106 25.8861 42.2399 26.1599 42.3669 26.3927L43.2428 27.9983H16.7836L17.6365 26.4347C17.7635 26.2019 17.7928 25.9281 17.718 25.6737C17.6432 25.4193 17.4704 25.205 17.2376 25.078L15.2587 23.9986H44.6679ZM8.00311 2.99982C8.00341 2.73471 8.10886 2.48055 8.29632 2.29308C8.48378 2.10562 8.73794 2.00018 9.00305 1.99988H15.0027C15.2678 2.00018 15.522 2.10562 15.7094 2.29308C15.8969 2.48055 16.0023 2.73471 16.0026 2.99982V3.99976H8.00311V2.99982ZM15.2813 9.9994H8.72444C9.45042 8.7829 9.88021 7.41281 9.97912 5.99964H14.0266C14.1255 7.41281 14.5553 8.7829 15.2813 9.9994ZM7.10879 11.9993H16.897C17.5662 12.6481 18.0977 13.4254 18.4595 14.2845C18.8213 15.1435 19.0059 16.0668 19.0025 16.999C19.0022 17.2641 18.8967 17.5183 18.7092 17.7057C18.5218 17.8932 18.2676 17.9986 18.0025 17.9989H6.00323C5.73812 17.9986 5.48396 17.8932 5.2965 17.7057C5.10904 17.5183 5.00359 17.2641 5.00329 16.999C4.9998 16.0668 5.18447 15.1435 5.54626 14.2844C5.90804 13.4254 6.4395 12.6481 7.10879 11.9993ZM5.00329 20.9987C5.00359 20.7336 5.10904 20.4795 5.2965 20.292C5.48396 20.1045 5.73812 19.9991 6.00323 19.9988H18.0025C18.2676 19.9991 18.5218 20.1045 18.7092 20.292C18.8967 20.4795 19.0022 20.7336 19.0025 20.9987V21.9987H5.00329V20.9987ZM2.00347 27.9983V23.9986H12.1312L9.94962 27.9983H2.00347ZM8.85869 29.9982L3.99973 38.9063L2.88617 29.9982H8.85869ZM3.88161 47.4757C3.7954 47.6336 3.66821 47.7654 3.51343 47.8572C3.35864 47.9489 3.18198 47.9973 3.00204 47.9971C2.83522 47.9973 2.67108 47.9552 2.52494 47.8748C2.29236 47.7475 2.11972 47.5333 2.0449 47.2789C1.97009 47.0246 1.99919 46.751 2.12584 46.5181L13.6464 25.3971L15.402 26.3548L3.88161 47.4757ZM54.3197 52.3792C54.2045 53.3014 53.3503 53.9968 52.3323 53.9968H7.67088C6.65332 53.9968 5.79912 53.3014 5.6835 52.3792L5.2579 48.9742C5.40378 48.8084 5.53092 48.627 5.637 48.4333L13.0028 34.9299V39.9976C13.0028 40.2628 13.1082 40.5171 13.2957 40.7047C13.4832 40.8922 13.7376 40.9975 14.0028 40.9975C14.268 40.9975 14.5223 40.8922 14.7098 40.7047C14.8973 40.5171 15.0027 40.2628 15.0027 39.9976V33.998C15.0026 33.742 14.9042 33.4958 14.7279 33.3102C14.5516 33.1247 14.3108 33.0138 14.0551 33.0006L15.6928 29.9982H44.3336L45.971 32.9995C45.7112 33.0071 45.4646 33.1156 45.2834 33.302C45.1023 33.4884 45.001 33.7381 45.0009 33.998V39.9976C45.0009 40.2628 45.1062 40.5171 45.2938 40.7047C45.4813 40.8922 45.7356 40.9975 46.0008 40.9975C46.266 40.9975 46.5204 40.8922 46.7079 40.7047C46.8954 40.5171 47.0008 40.2628 47.0008 39.9976V34.8882L54.3662 48.3914C54.4734 48.5871 54.6021 48.7702 54.7499 48.9373L54.3197 52.3792ZM57.9591 47.237C57.9034 47.4269 57.7926 47.5959 57.6407 47.7227C57.4889 47.8495 57.3029 47.9284 57.1062 47.9495C56.9095 47.9705 56.7109 47.9328 56.5357 47.841C56.3605 47.7492 56.2164 47.6075 56.1217 47.4338L44.6009 26.3129L46.3567 25.3552L57.8776 46.4761C57.9408 46.5913 57.9806 46.7178 57.9945 46.8484C58.0085 46.979 57.9965 47.1111 57.9591 47.237Z" fill="#F37321"/>
</svg>
